<?xml version="1.0" encoding="UTF-8" standalone="no"?>
<!-- Created with Inkscape (http://www.inkscape.org/) -->
<svg id="svg2" xmlns:rdf="http://www.w3.org/1999/02/22-rdf-syntax-ns#" xmlns="http://www.w3.org/2000/svg" viewBox="0 0 404.02 167.94" version="1.1" xmlns:cc="http://creativecommons.org/ns#" xmlns:dc="http://purl.org/dc/elements/1.1/">
 <metadata id="metadata7">
  <rdf:RDF>
   <cc:Work rdf:about="">
    <dc:format>image/svg+xml</dc:format>
    <dc:type rdf:resource="http://purl.org/dc/dcmitype/StillImage"/>
    <dc:title/>
   </cc:Work>
  </rdf:RDF>
 </metadata>
 <g id="layer1" transform="translate(0 -884.42)">
  <path id="path2990" fill="#fff" d="m126.46 894.87c-0.20631 0.012-0.39997 0.0371-0.60707 0.0714-1.6568 0.27449-3.2198 1.2626-4.7217 2.9622-1.5019 1.6998-2.6454 4.1379-3.3726 7.3164-0.30986 1.5359-0.58389 3.7325-0.84316 6.6383-0.25928 2.906-0.45215 6.146-0.60707 9.7076-0.15494 3.5618-0.30035 7.3298-0.40472 11.278-0.10438 3.9482-0.13491 7.7146-0.13491 11.278v9.6719 6.4955c0 1.5358 0.0154 2.7961 0.0674 3.7831 0.0521 0.9871 0.0674 1.9591 0.0674 2.8909 0 0.93188 0.0491 1.8358 0.10118 2.7124 0.0521 0.87666 0.098 1.9329 0.20236 3.1407-0.20868 0.98708-0.4964 2.0109-0.91061 3.105-0.30986 0.87667-0.74462 1.8648-1.3153 2.9622-0.57071 1.0975-1.2321 2.186-1.9561 3.2834-0.20867 0.32792-0.36943 0.73948-0.47217 1.1778-0.10275 0.43835-0.19917 0.91457-0.30353 1.4633-0.10435 0.54875-0.19917 1.0964-0.30354 1.6417-0.20552 0.98707-0.17495 1.499 0.13491 1.499 0.20867 0.00002 0.723-0.44387 1.5514-1.3205 0.8284-0.87661 2.1817-2.6522 4.0472-5.2821 0.51854 4.7144 1.1799 10.835 1.9561 18.345 0.77622 7.5099 1.8233 16.322 3.1703 26.41 1.0371 1.5323 1.8592 2.7102 2.4283 3.5332 0.56912 0.8231 1.036 1.4533 1.4502 1.8916 0.41417 0.4383 0.83209 0.7101 1.2479 0.8209 0.41576 0.1104 0.93168 0.2138 1.5514 0.3212-0.10436-0.8767-0.36153-2.8709-0.77571-5.9959-0.41422-3.125-0.84896-6.7392-1.3153-10.85-0.46638-4.1104-0.98228-8.4406-1.5514-12.991-0.56915-4.5505-1.0698-8.8304-1.484-12.777-0.41422-3.9465-0.76782-7.2868-1.0792-10.029-0.31147-2.7419-0.47219-4.276-0.47218-4.604 0.93273-2.7403 2.0273-6.1146 3.2715-10.172 1.2442-4.0569 2.501-8.4389 3.7436-13.098s2.3861-9.4493 3.4738-14.383c1.0876-4.9335 1.9419-9.654 2.5632-14.204 0.62129-4.5503 0.94432-8.7606 0.94434-12.598-0.00002-3.8377-0.48378-6.9739-1.4165-9.3864-0.82843-2.4123-2.0362-4.1667-3.6425-5.3178-1.4054-1.007-2.8391-1.476-4.2832-1.3919zm1.2479 5.7817c0.43999 0.007 0.92484 0.094 1.4165 0.28551 1.2426 0.11053 2.0004 2.0707 2.2597 5.8531 0.25925 3.7826 0.00051 8.743-0.77571 14.883-0.77625 6.1398-2.0178 13.042-3.6762 20.771-1.6584 7.7291-3.7847 15.623-6.3743 23.627 0-2.6298-0.0306-6.2116-0.13489-10.707-0.10436-4.4952-0.18547-9.2676-0.23609-14.312-0.0506-5.0439 0.029-10.106 0.23609-15.204 0.20707-5.0974 0.64184-9.6138 1.3153-13.562 0.67347-3.9481 1.592-7.0163 2.7318-9.2079 0.85487-1.6436 1.9178-2.4469 3.2377-2.4269zm-53.962 5.5319c-0.67355 0.10885-1.2843 0.38098-1.855 0.82086-0.57078 0.4401-1.0545 0.96818-1.4165 1.5704-0.3621 0.60236-0.44167 1.1321-0.23609 1.5703 0.20867 0.65924 0.30348 1.1015 0.30354 1.3205-0.00006 0.21926-0.0307 0.47522-0.1349 0.74949-0.10441 0.27446-0.24986 0.66649-0.40472 1.2134-0.15501 0.54715-0.23615 1.5013-0.23608 2.8195 0.30978 2.0812 0.36038 5.3714 0.10118 9.9217-0.25935 4.5505-0.72781 9.6129-1.3491 15.204-0.62136 5.5911-1.3454 11.353-2.2259 17.274-0.88063 5.9206-1.7992 11.239-2.7318 15.953-0.93281 4.7144-1.8513 8.4825-2.7318 11.278-0.88063 2.7955-1.6063 3.9002-2.2259 3.3548-1.2458-1.7566-2.4199-4.1232-3.5075-7.1379-1.0877-3.0146-2.1196-6.1687-3.1028-9.4578-0.98339-3.289-1.9019-6.5111-2.7318-9.6362-0.83002-3.125-1.5082-5.6991-2.0236-7.7804-0.62293-2.4124-1.0714-4.8325-1.3828-7.245-0.31149-2.4123-0.56864-4.6284-0.7757-6.6026-0.20714-1.974-0.53018-3.6102-0.94434-4.9252-0.41425-1.3149-0.99603-2.1313-1.72-2.4626-1.347-0.32783-2.2165-0.2598-2.6306 0.17845-0.41424 0.43838-0.86428 1.2548-1.3828 2.4626-1.0371 3.7274-2.2281 7.9037-3.575 12.563-1.347 4.6592-2.7814 9.3474-4.2832 14.062-1.5019 4.7144-3.0175 9.3005-4.5193 13.741-1.5019 4.44-2.8857 8.2923-4.1821 11.528-1.2964 3.2355-2.4568 5.6719-3.4401 7.3164-0.98335 1.6445-1.6126 2.0901-1.9224 1.3205-0.31304 0-0.61763-1.7577-0.87688-5.2107-0.25928-3.453-0.5486-7.7831-0.91061-12.991-0.36204-5.2079-0.71722-10.884-1.0792-17.024-0.36204-6.1397-0.74936-11.78-1.113-16.988-0.36362-5.2078-0.7325-9.5898-1.1467-13.098-0.41422-3.5081-0.83368-5.3144-1.2479-5.4248-1.4513-0.54865-2.9163-0.30885-4.4182 0.6781-1.5019 0.98713-2.1648 2.4515-1.9561 4.4255 0.72405 0.98713 1.4023 3.7653 2.0236 8.3157 0.6213 4.5505 1.2336 10.261 1.8549 17.167s1.2826 14.748 1.9561 23.52c0.67347 8.7713 1.4618 17.942 2.3946 27.481 0.20867 0.5488 0.48112 1.127 0.84316 1.7845 0.36202 0.6573 0.84578 1.0852 1.4165 1.2491 0.5707 0.164 1.2473-0.024 2.0236-0.571 0.77622-0.5471 1.7253-1.6373 2.8667-3.2835 1.7611-2.8507 3.566-6.5329 5.4299-11.028 1.8639-4.4952 3.7178-9.3535 5.5311-14.561 1.8133-5.2079 3.5844-10.544 5.295-16.025 1.7105-5.4806 3.3378-10.697 4.8903-15.632 1.6568 6.1398 3.1065 11.442 4.3507 15.882 1.2441 4.4401 2.4672 8.4964 3.7099 12.17 1.2426 3.6738 2.6448 7.1842 4.1483 10.528 1.5034 3.3442 3.2914 6.9762 5.3625 10.921 0.51848 1.2079 1.065 2.0081 1.6863 2.3912 0.62126 0.3835 1.2336 0.4852 1.855 0.3212 0.62124-0.164 1.2014-0.522 1.72-1.0707 0.51849-0.5487 0.87367-1.093 1.0792-1.6417 1.037-4.2761 2.0504-9.0825 3.0354-14.454 0.98486-5.3718 1.9034-10.946 2.7318-16.703 0.82833-5.7566 1.6183-11.603 2.3946-17.524 0.77617-5.9205 1.5324-11.683 2.2597-17.274 0.10428-3.6168 0.28186-6.9589 0.53963-10.029 0.25761-3.0698 0.48421-5.7638 0.6408-8.0659 0.15641-2.3019 0.23601-4.194 0.23608-5.6747-0.00007-1.4805-0.15922-2.4168-0.47217-2.8552-0.51546-0.54862-1.1141-0.78671-1.7875-0.6781zm268.73 30.193c-0.72566 0.0553-1.3517 0.22537-1.9224 0.49966-0.57074 0.27444-0.87692 0.6648-0.8769 1.2134 0 2.3021 0.0152 4.178 0.0675 5.6033 0.0521 1.4254 0.13172 2.8736 0.23608 4.3541 0.10432 1.4806 0.23452 3.2026 0.33726 5.175 0.10275 1.9725 0.19918 4.7345 0.30354 8.2443-2.7982 0.43836-5.6808 0.65863-8.634 0.71379-2.9532 0.0553-5.1928 0.31123-6.7453 0.74948-1.0371 0.21753-1.7627 0.49135-2.1248 0.82087-0.36203 0.32961-0.55495 0.67145-0.60708 0.99931-0.0521 0.32794-0.0521 0.71997 0 1.2134 0.0521 0.49357 0.0369 1.0217-0.0674 1.5703 0.8284 0.7696 1.3749 1.2798 1.6863 1.499 0.31145 0.21919 0.95593 0.2532 1.8887 0.14276 0.93274-0.11037 2.4636-0.3128 4.5868-0.64241 2.1232-0.32953 5.4573-0.73941 10.017-1.1778 0.30984 3.9482 0.56858 8.4144 0.77571 13.348 0.20707 4.9336 0.57595 9.6541 1.1467 14.204 0.57069 4.5504 1.4571 8.5209 2.5969 11.92 1.1398 3.3994 2.8804 5.4471 5.2613 6.103 1.8655 0.5485 3.6213 0.735 5.2276 0.571 1.6062-0.1639 3.0559-0.5381 4.3507-1.1421 1.2947-0.6039 2.4061-1.3361 3.3389-2.2127 0.9327-0.8767 1.7042-1.6964 2.3271-2.4626 1.3469-1.5358 1.7817-2.6941 1.3153-3.4619-0.46642-0.7654-1.0603-0.7662-1.7875 0-0.82845 0.987-1.7791 1.9914-2.8668 3.0336-1.0877 1.0423-2.2802 1.8263-3.575 2.3198-1.2948 0.4936-2.6634 0.5437-4.1146 0.2142-1.4513-0.3296-2.9026-1.4197-4.3507-3.2835-1.0371-2.7403-1.7933-5.7243-2.2597-8.9581-0.46639-3.2338-0.78943-6.5741-0.94433-10.029-0.15491-3.4546-0.23611-6.965-0.23609-10.528-0.00002-3.5634-0.0949-7.0252-0.30354-10.421 4.455-1.2078 9.1577-2.1943 14.131-2.9622 0.89173-0.13767 1.6744-0.22982 2.5295-0.3569 0.3498 0.29471 0.67272 0.59384 0.94434 0.92793 0.31144 0.38316 0.63448 0.77518 0.94434 1.2134 0.31303 0.43836 0.60075 0.95029 0.91061 1.499-0.51855 2.9612-0.87213 6.6757-1.0792 11.171-0.2071 4.4953-0.14123 9.6418 0.16863 15.454 0.10434 1.315 0.37678 2.9026 0.84316 4.711 0.46636 1.8085 1.1583 3.5306 2.091 5.175 0.93274 1.6446 2.1896 3.0247 3.7436 4.1757s3.4538 1.7488 5.7335 1.7488c1.3469 0 2.7966-0.8538 4.3507-2.4983 1.554-1.6446 3.0037-3.7245 4.3507-6.2457 1.3469-2.5211 2.5885-5.3334 3.6762-8.4585 1.0876-3.125 1.8776-6.1771 2.3946-9.1366 0.51693-2.9594 0.67925-5.6696 0.47218-8.1372-0.20713-2.4676-0.94964-4.2916-2.1922-5.4962-1.2426-1.3182-2.8056-2.4927-4.7217-3.5333-1.9161-1.0405-4.0272-1.9964-6.3068-2.8195-1.6118-0.58191-3.2264-1.0818-4.8903-1.499 0.55001-0.32103 0.73375-0.84335 0.50589-1.606-0.3115-1.0422-0.98654-1.6384-2.0236-1.7488-4.6606 0.43838-9.1568 0.86441-13.457 1.2491-4.3001 0.38484-8.6645 0.74285-13.12 1.0707 0.10428-1.5357 0.16861-3.4117 0.16863-5.6033 0-2.1915-0.0491-4.3574-0.10117-6.4955-0.0522-2.138-0.13334-4.1483-0.23609-6.0672-0.10278-1.9188-0.29408-3.367-0.60707-4.3541-0.20554-0.54865-0.6266-0.9747-1.2479-1.2491-0.62134-0.27426-1.298-0.37637-2.0236-0.32121zm-139.96 15.846c-0.1328 0.017-0.24137 0.0661-0.37099 0.10706-0.51855 0.16402-0.77571 0.72612-0.77571 1.7131-0.10434 4.0586-0.24978 8.831-0.40472 14.312-0.15492 5.4806-0.31724 10.869-0.47217 16.132-0.15493 5.2631-0.31723 9.9496-0.47216 14.062-0.15493 4.1121-0.33094 6.8903-0.53963 8.3157 0.51855 0.987 1.163 1.9234 1.8887 2.8552 0.72564 0.9318 1.9488 1.1878 3.7099 0.7495 0.20551-3.1819 0.70614-6.7086 1.484-10.6 0.77781-3.8912 1.7269-7.8132 2.8667-11.706 1.1398-3.8929 2.4778-7.6253 3.9797-11.242 1.5019-3.6169 3.1292-6.8568 4.8903-9.7076 0.82839-0.987 1.4086-1.1571 1.72-0.49966 0.31142 0.65751 0.50434 1.8855 0.60708 3.6404 0.10274 1.755 0.10274 3.8512 0 6.3171-0.10277 2.466-0.18396 5.0061-0.23609 7.6376-0.0522 2.6316-0.0522 5.2397 0 7.816 0.0521 2.5764 0.29404 4.7423 0.70825 6.4955 0.30984 1.2079 1.0186 2.0243 2.1585 2.4626 1.1398 0.4383 1.9772 0.1662 2.4958-0.8209 0.41416-1.4253 1.0112-3.2494 1.7875-5.4962 0.77621-2.2468 1.6947-4.5828 2.7318-6.9952 1.037-2.4124 2.0978-4.6787 3.2377-6.8167 1.1398-2.138 2.2206-3.9281 3.204-5.3534 0.98329-1.4253 1.8222-2.2434 2.4958-2.4626 0.67343-0.21912 1.1066 0.39486 1.3153 1.8202 0.20547 3.2891 0.57594 6.5775 1.1467 9.9217 0.57068 3.3442 1.5703 6.2084 2.9679 8.5655 1.3975 2.3572 3.2972 3.8913 5.7335 4.604 2.3406 0.6847 5.3419 0.041 8.9712-1.8559 0.10689 1.0816 0.23857 2.0754 0.43844 2.9266 0.10434 0.5454 0.29562 1.195 0.60707 1.9629 0.31144 0.7679 0.81049 1.6378 1.484 2.5696 0.67347 0.9319 1.6241 1.8342 2.8667 2.7125s2.9173 1.6963 4.9915 2.4626c2.4852 0.4383 4.6943 0.4383 6.6104 0 1.9161-0.4384 3.6551-1.2223 5.2613-2.3199 1.6062-1.0974 3.1355-2.3755 4.5868-3.8545 1.4513-1.4788 2.9668-2.9968 4.5193-4.5326 1.3469-1.6461 2.4736-2.9404 3.4064-3.9258 0.93271-0.98536 1.6889-1.857 2.2597-2.5697 0.57067-0.71265 1.0054-1.359 1.3153-1.9629 0.30982-0.60392 0.63445-1.3038 0.94435-2.07 0.20864-0.98701 0.3678-1.7354 0.47216-2.2841 0.10426-0.54869 0.11959-0.97474 0.0674-1.2491-0.0522-0.27432-0.22663-0.29218-0.53961-0.0714-1.4482 1.9741-2.8183 3.6621-4.1146 5.0322-1.2964 1.3702-3.0523 3.0225-5.2276 4.9966-1.347 1.3149-3.086 2.849-5.2613 4.604-2.1754 1.7549-4.3981 3.1708-6.6778 4.2114-2.2797 1.0404-4.4719 1.3986-6.5429 1.0707s-3.6172-1.9317-4.6542-4.7824c4.455-3.3995 8.3051-6.9796 11.568-10.707 3.263-3.7273 5.8884-8.3603 7.8582-13.955 1.3469-5.0422 1.2015-8.454-0.40472-10.207-1.6062-1.7532-3.9102-2.5696-6.9139-2.4626-0.93277-0.32785-2.1237-0.24365-3.575 0.24983-1.4513 0.49357-2.3208 0.78192-2.6306 0.89224-2.071 1.2046-3.8759 2.8943-5.4299 5.0322-1.5541 2.1381-3.0038 4.7445-4.3507 7.816-1.9698 5.9189-3.0001 10.727-3.1028 14.454-0.0422 1.5299-0.0282 2.904 0.0337 4.1757-0.24163-0.0606-0.53175-0.1072-0.91061-0.14276-0.57079-0.0534-1.4556-0.0714-2.6981-0.0714-2.2797 0.32792-4.1168-0.16616-5.4637-1.4276-1.347-1.2614-2.3788-2.9137-3.1028-4.9966-0.72411-2.0828-1.191-4.4188-1.4502-6.9952-0.25932-2.5763-0.5012-5.0144-0.70825-7.3164-0.20715-2.302-0.4643-4.2961-0.77571-5.9959-0.31148-1.6997-0.89168-2.7057-1.72-3.0336-1.7612-0.76951-3.4038-0.49571-4.9578 0.82086-1.5541 1.3167-3.0038 3.1391-4.3507 5.4962-1.347 2.3572-2.6191 4.9832-3.8111 7.8874-1.192 2.9043-2.2713 5.5821-3.204 7.9945-0.20554-3.0682-0.3678-6.104-0.47217-9.0652-0.10437-2.9611-0.18396-5.6534-0.23608-8.0659-0.0522-2.4124-0.14864-4.4405-0.30354-6.1386-0.15496-1.698-0.33413-2.8417-0.53962-3.3905-0.93277-1.8636-1.963-2.7838-3.1028-2.7838-1.1399 0.00005-2.3308 0.63186-3.575 1.8916-1.2442 1.2598-2.5163 2.9656-3.8111 5.1036-1.2948 2.1381-2.4873 4.4206-3.575 6.8881-1.0877 2.4676-2.0384 4.904-2.8667 7.3164-0.82841 2.4124-1.4407 4.4925-1.855 6.2457 0-7.3442 0.19287-13.481 0.60707-18.416 0.41415-4.9352 0.51221-8.8198 0.30355-11.671-0.20553-0.21743-0.57599-0.57712-1.1467-1.0707-0.5707-0.49346-1.1509-0.85147-1.72-1.0707-0.42685-0.16431-0.84948-0.22955-1.2479-0.17844zm-32.917 7.9231c-0.30986 0.65584-0.85475 1.3038-1.6863 1.9629-0.4142 0.43836-0.83367 0.78187-1.2479 0.99931 0.41421 0.33129 0.7678 0.68763 1.0792 1.0707 0.31144 0.38316 0.63448 0.77518 0.94433 1.2134 0.31303 0.43836 0.60075 0.95029 0.91061 1.499-0.51853 2.9612-0.87213 6.6757-1.0792 11.171-0.0769 1.6697-0.0956 3.4665-0.10117 5.3178-0.16537 0.18805-0.29927 0.34006-0.47217 0.53534-1.5035 1.6981-3.3895 3.6906-5.666 5.9959-1.5557 1.315-3.0697 2.5948-4.5193 3.8545-1.4497 1.2598-2.9637 2.4358-4.5193 3.5333s-3.1966 2.0516-4.9578 2.8195-3.7911 1.3461-6.0707 1.7845c-1.1383-0.1105-1.9941-0.4668-2.5632-1.0707-0.56913-0.604-1.0023-1.2681-1.3153-2.0344-1.0339-3.7273-1.1962-6.9672-0.47217-9.7076 0.72406-2.7403 1.915-5.9769 3.575-9.7076 1.5525-3.3961 3.3268-6.1241 5.295-8.2086s3.7715-3.7725 5.43-5.0322c1.6584-1.2597 3.0269-2.2333 4.1146-2.8909 1.0877-0.65742 1.5882-1.3037 1.484-1.9629-2.071-0.43827-4.1821-0.43827-6.3068 0-2.1248 0.43836-4.4287 1.5983-6.9139 3.4619-1.7612 1.5358-3.5645 3.956-5.4299 7.245-1.8655 3.2891-3.4116 6.8335-4.6542 10.671-1.2426 3.8378-2.0494 7.7079-2.3608 11.599-0.31144 3.8913 0.17391 7.2171 1.4165 9.9575 1.0371 2.3053 2.1469 3.598 3.3389 3.9258 1.192 0.3281 2.7213 0.5674 4.5868 0.6782 4.6606-0.7663 9.0112-2.7281 13.052-5.8532 4.0408-3.125 7.6016-6.4654 10.658-10.029 1.2127-1.414 2.3055-2.7863 3.3389-4.14 0.0462 1.5304 0.11521 3.0765 0.20235 4.711 0.10434 1.315 0.37679 2.9026 0.84316 4.711 0.46636 1.8085 1.1583 3.5306 2.091 5.175 0.93274 1.6446 2.1896 3.0247 3.7436 4.1757s3.4538 1.7488 5.7335 1.7488c1.3469 0 2.7966-0.8538 4.3507-2.4983 1.554-1.6446 3.0037-3.7245 4.3507-6.2457 1.3469-2.5211 2.5885-5.3334 3.6762-8.4585 1.0877-3.125 1.8776-6.1771 2.3946-9.1366 0.51692-2.9594 0.67924-5.6696 0.47216-8.1372-0.20713-2.4676-0.94963-4.2916-2.1922-5.4962-1.2426-1.3182-2.8056-2.4927-4.7217-3.5333-1.9161-1.0405-4.0272-1.9964-6.3068-2.8195-2.2797-0.82305-4.5973-1.4694-6.9814-1.9629-2.384-0.49348-4.5762-0.78512-6.5429-0.89224zm-75.952 1.4633c-0.596 0.0414-1.2642 0.18153-1.9898 0.42827-1.4513 0.49357-2.3208 0.78192-2.6307 0.89224-2.071 1.2046-3.8759 2.8943-5.4299 5.0322-1.5541 2.1381-3.0038 4.7445-4.3507 7.816-1.9698 5.9189-3.0001 10.727-3.1028 14.454-0.10277 3.7274 0.0917 6.6918 0.60707 8.8868 0.10434 0.5454 0.29563 1.195 0.60708 1.9629 0.31143 0.7679 0.81049 1.6378 1.484 2.5696 0.67347 0.9319 1.6241 1.8342 2.8667 2.7125s2.9173 1.6963 4.9915 2.4626c2.4852 0.4383 4.6943 0.4383 6.6104 0 1.9161-0.4384 3.6551-1.2223 5.2613-2.3199 1.6062-1.0974 3.1355-2.3755 4.5868-3.8545 1.4513-1.4788 2.9668-2.9968 4.5193-4.5326 1.3469-1.6461 2.4736-2.9404 3.4064-3.9258 0.9327-0.98536 1.6889-1.857 2.2597-2.5697 0.57067-0.71265 1.0054-1.359 1.3153-1.9629 0.30982-0.60392 0.63444-1.3038 0.94434-2.07 0.20865-0.98701 0.3678-1.7354 0.47217-2.2841 0.10424-0.54869 0.11957-0.97474 0.0674-1.2491-0.0522-0.27432-0.22664-0.29218-0.53962-0.0714-1.4482 1.9741-2.8183 3.6621-4.1146 5.0322-1.2964 1.3702-3.0523 3.0225-5.2276 4.9966-1.347 1.3149-3.086 2.849-5.2613 4.604-2.1754 1.7549-4.3981 3.1708-6.6778 4.2114-2.2797 1.0404-4.4719 1.3986-6.5429 1.0707s-3.6172-1.9317-4.6542-4.7824c4.455-3.3995 8.3051-6.9796 11.568-10.707 3.263-3.7273 5.8884-8.3603 7.8582-13.955 1.3469-5.0422 1.2015-8.454-0.40472-10.207-1.6062-1.7532-3.9102-2.5696-6.9139-2.4626-0.46638-0.16392-0.98913-0.21985-1.5851-0.17844zm1.7875 5.1036c0.66066 0.006 1.3294 0.16968 1.9898 0.49966 0.2055 0.00004 0.39837 0.1718 0.60708 0.49965 0.41418 0.65918 0.48162 1.8191 0.16863 3.4619-0.10121 2.4124-0.76414 4.6949-1.9561 6.8881-1.192 2.1933-2.5759 4.1874-4.1821 5.9959s-3.3131 3.4123-5.1264 4.7824c-1.8133 1.3702-3.4085 2.4425-4.7554 3.2121 0-2.8507 0.49904-5.901 1.484-9.1366 0.98491-3.2355 2.1927-6.1838 3.6424-8.8154 1.4497-2.6315 3.0601-4.6418 4.8229-6.0672 1.1017-0.89082 2.2041-1.3302 3.3052-1.3205zm183.03 0c0.66066 0.006 1.3294 0.16968 1.9898 0.49966 0.2055 0.00004 0.39837 0.1718 0.60707 0.49965 0.41418 0.65918 0.48163 1.8191 0.16864 3.4619-0.10122 2.4124-0.76414 4.6949-1.9561 6.8881-1.192 2.1933-2.5759 4.1874-4.1821 5.9959s-3.3131 3.4123-5.1264 4.7824c-1.8133 1.3702-3.4085 2.4425-4.7554 3.2121 0-2.8507 0.49903-5.901 1.484-9.1366 0.9849-3.2355 2.1927-6.1838 3.6424-8.8154 1.4497-2.6315 3.0601-4.6418 4.8229-6.0672 1.1017-0.89082 2.2041-1.3302 3.3052-1.3205zm-102.33 0.49966c2.1753 0.65584 3.9481 1.1856 5.295 1.5703 1.3469 0.38482 2.4583 0.74283 3.3389 1.0707 0.88055 0.32794 1.5877 0.68596 2.1585 1.0707 0.57069 0.38482 1.2626 0.84656 2.091 1.3919 1.037 0.88001 1.7948 2.3104 2.2597 4.2828 0.46477 1.9724 0.53064 4.2404 0.16864 6.8167-0.36206 2.5764-1.1857 5.3027-2.4283 8.2086s-3.1102 5.7539-5.5986 8.4942c-0.93275 0.987-1.8023 1.5653-2.6307 1.7845-0.82841 0.2192-1.6168 0.2029-2.3946-0.071-0.77783-0.2744-1.4392-0.6486-1.9561-1.1421-0.51697-0.4935-0.93486-0.98934-1.2479-1.4276-0.41421-0.7662-0.78466-2.2161-1.1467-4.3541s-0.58868-4.6603-0.6408-7.5662c-0.0352-1.958 0.0258-4.05 0.20235-6.2814 1.2269-2.0868 2.1743-3.6952 2.4958-4.4612-0.70208-0.21084-1.4029-0.0811-2.0573 0.42827 0.42546-3.271 1.124-6.5451 2.091-9.8147zm196.39 0c2.1753 0.65584 3.9481 1.1856 5.295 1.5703 1.3469 0.38482 2.4583 0.74283 3.3389 1.0707 0.88056 0.32794 1.5878 0.68596 2.1585 1.0707 0.5707 0.38482 1.2626 0.84656 2.091 1.3919 1.0371 0.88001 1.7948 2.3104 2.2597 4.2828 0.46477 1.9724 0.53065 4.2404 0.16864 6.8167-0.36206 2.5764-1.1857 5.3027-2.4283 8.2086s-3.1102 5.7539-5.5986 8.4942c-0.93276 0.987-1.8023 1.5653-2.6307 1.7845-0.82841 0.2192-1.6168 0.2029-2.3946-0.071-0.77782-0.2744-1.4392-0.6486-1.9561-1.1421-0.51697-0.4935-0.93486-0.98934-1.2479-1.4276-0.41422-0.7662-0.78467-2.2161-1.1467-4.3541s-0.58867-4.6603-0.6408-7.5662c-0.0521-2.9059 0.12541-6.0923 0.53962-9.6005 0.4142-3.5082 1.1551-7.0219 2.1922-10.528z"/>
 </g>
</svg>
